<svg width="336" height="33" viewBox="0 0 336 33" xmlns="http://www.w3.org/2000/svg" xmlns:xlink="http://www.w3.org/1999/xlink"><defs><path id="a" d="M0 0h49.555v17.828H0z"/></defs><g fill="none" fill-rule="evenodd"><path fill="#1D5D94" d="M84.23 2.885h5.234l-4.945 23.113h-5.506l-4.419-15.703-4.487 15.703h-5.472L59.638 2.885h5.303l2.804 16.74 4.673-16.74h4.317l4.64 16.774L84.23 2.885M91.912 2.205h5.115v8.276a9.181 9.181 0 012.396-1.342 7.818 7.818 0 012.753-.476c.918 0 1.748.102 2.49.306a4.425 4.425 0 011.904 1.054c.527.498.931 1.17 1.215 2.014.283.844.424 1.906.424 3.187v10.774h-5.064V15.224c0-1.043-.187-1.779-.561-2.21-.374-.431-.974-.646-1.801-.646a5.45 5.45 0 00-2.014.365 7.842 7.842 0 00-1.742.96v12.305h-5.115V2.205M119.732 12.164c-.431 0-.822.054-1.173.162a2.4 2.4 0 00-.943.552c-.278.261-.51.606-.697 1.036-.187.432-.331.964-.433 1.598h6.135c0-.612-.079-1.133-.238-1.563-.159-.431-.371-.776-.637-1.037a2.421 2.421 0 00-.918-.569 3.345 3.345 0 00-1.096-.179zm-3.331 6.441c.159 1.303.617 2.3 1.376 2.992.76.69 1.807 1.036 3.144 1.036.963 0 1.83-.071 2.601-.212.77-.142 1.427-.292 1.971-.45l1.02 3.024c-.714.431-1.57.763-2.566.994-.997.233-2.08.349-3.246.349-1.485 0-2.81-.195-3.977-.586-1.167-.392-2.156-.958-2.966-1.7-.81-.741-1.43-1.651-1.861-2.728-.431-1.076-.646-2.305-.646-3.687 0-1.416.207-2.683.621-3.799.413-1.116 1-2.056 1.759-2.821a7.547 7.547 0 012.744-1.75c1.071-.403 2.263-.604 3.578-.604 1.02 0 1.974.165 2.863.493.89.329 1.666.793 2.329 1.394a6.58 6.58 0 011.572 2.158c.385.839.577 1.773.577 2.804v3.093h-10.893zM136.336 22.803c.43 0 .835-.042 1.215-.127a8.47 8.47 0 001.036-.298c.312-.113.579-.227.799-.34.221-.113.388-.204.502-.271v-3.145h-2.635c-.6.012-1.093.108-1.478.289-.385.182-.689.397-.909.646-.221.25-.371.505-.45.764-.08.261-.12.477-.12.647 0 .589.196 1.042.587 1.359.39.318.875.476 1.453.476zm3.552-7.07v-.306c0-.555-.071-1.014-.213-1.376a2.06 2.06 0 00-.62-.876c-.272-.22-.615-.376-1.028-.467a6.808 6.808 0 00-1.436-.136c-.442 0-.899.032-1.368.093a14.825 14.825 0 00-2.626.595 8.442 8.442 0 00-1.02.4l-.867-3.484c.408-.216.87-.414 1.386-.595a16.81 16.81 0 013.331-.799 12.71 12.71 0 011.707-.119c1.156 0 2.213.102 3.17.306.957.204 1.779.561 2.465 1.071.685.51 1.22 1.201 1.606 2.073.384.873.577 1.978.577 3.314v10.571h-4.555l-.322-1.75a9.491 9.491 0 01-.867.637c-.352.232-.751.45-1.198.654a9.282 9.282 0 01-1.479.519 6.783 6.783 0 01-1.725.212c-.917 0-1.728-.127-2.43-.382-.703-.255-1.292-.604-1.768-1.045a4.375 4.375 0 01-1.079-1.556 5.003 5.003 0 01-.365-1.912c0-.781.195-1.515.586-2.2a5.82 5.82 0 011.615-1.793c.685-.51 1.498-.912 2.439-1.207.94-.294 1.96-.442 3.059-.442h3.025zM147.263 9.003h2.465V4.584l5.081-.339v4.758h4.793v3.178h-4.793v7.682c0 .907.17 1.541.51 1.904.34.362.918.543 1.734.543.498 0 .965-.034 1.402-.102.436-.067.813-.136 1.13-.204l.408 3.535c-.25.091-.533.173-.85.246-.317.074-.652.137-1.003.188-.351.05-.708.093-1.071.127-.362.034-.714.051-1.053.051-.986 0-1.867-.093-2.643-.281-.776-.186-1.434-.515-1.971-.985-.539-.47-.952-1.111-1.241-1.92-.289-.811-.433-1.845-.433-3.102v-7.682h-2.635l.17-3.178M162.661 25.998h5.064V2.205h-5.064zM181.219 26.848c-.34 1.201-.725 2.195-1.156 2.982-.431.788-.9 1.416-1.41 1.887-.51.47-1.057.802-1.64.994a5.87 5.87 0 01-1.845.289 12 12 0 01-1.461-.085 12.938 12.938 0 01-1.291-.221l.339-3.535a6.238 6.238 0 01.629.026l.272.016c.113.006.3.009.561.009.261 0 .498-.034.714-.102.215-.068.413-.19.594-.365.182-.176.349-.417.502-.722.153-.306.308-.692.467-1.156L170.24 9.003h5.167l3.449 11.965 3.603-11.965h5.167l-6.407 17.845M189.768 9.003h4.282l.476 1.768a9.813 9.813 0 012.558-1.556c.9-.367 1.883-.552 2.948-.552.918 0 1.748.1 2.49.297a4.392 4.392 0 011.903 1.037c.527.493.933 1.156 1.217 1.989.283.832.423 1.889.423 3.169v10.843h-5.064V15.155c0-.521-.045-.957-.136-1.308-.091-.351-.232-.638-.425-.859a1.61 1.61 0 00-.739-.475 3.496 3.496 0 00-1.062-.145c-.725 0-1.397.125-2.014.374a8.043 8.043 0 00-1.742.969v12.287h-5.115V9.003M217.894 25.998V2.885h14.887v3.739h-9.806v5.88h8.702v3.739h-8.702v6.016h9.806v3.739h-14.887M244.677 26.848c-.34 1.201-.725 2.195-1.156 2.982-.43.788-.901 1.416-1.411 1.887-.509.47-1.056.802-1.639.994a5.868 5.868 0 01-1.844.289c-.51 0-.997-.028-1.462-.085a13.01 13.01 0 01-1.292-.221l.341-3.535a6.223 6.223 0 01.628.026l.272.016c.114.006.3.009.561.009.261 0 .499-.034.714-.102.215-.068.413-.19.594-.365.182-.176.349-.417.502-.722.153-.306.309-.692.467-1.156l-6.254-17.862h5.166l3.45 11.965 3.604-11.965h5.166l-6.407 17.845M260.584 12.164c-.431 0-.822.054-1.171.162a2.396 2.396 0 00-.944.552c-.279.261-.51.606-.697 1.036-.188.432-.332.964-.434 1.598h6.135c0-.612-.078-1.133-.238-1.563-.158-.431-.371-.776-.637-1.037a2.398 2.398 0 00-.918-.569 3.345 3.345 0 00-1.096-.179zm-3.332 6.441c.161 1.303.62 2.3 1.377 2.992.76.69 1.809 1.036 3.145 1.036.963 0 1.83-.071 2.6-.212a20.58 20.58 0 001.972-.45l1.02 3.024c-.715.431-1.571.763-2.567.994-.998.233-2.08.349-3.246.349-1.484 0-2.81-.195-3.976-.586-1.168-.392-2.157-.958-2.967-1.7a7.325 7.325 0 01-1.86-2.728c-.431-1.076-.646-2.305-.646-3.687 0-1.416.207-2.683.621-3.799.412-1.116.998-2.056 1.758-2.821a7.555 7.555 0 012.744-1.75c1.072-.403 2.264-.604 3.578-.604 1.02 0 1.975.165 2.863.493a7.071 7.071 0 012.329 1.394c.664.6 1.187 1.32 1.572 2.158.385.839.578 1.773.578 2.804v3.093h-10.895zM270.323 14.407c0-1.789.265-3.415.799-4.877.531-1.462 1.291-2.711 2.277-3.747.984-1.037 2.184-1.836 3.594-2.397 1.41-.561 2.994-.841 4.75-.841 1.156 0 2.132.091 2.931.272a12.96 12.96 0 012.065.629l-.865 3.433a10.454 10.454 0 00-1.793-.459c-.664-.113-1.37-.17-2.118-.17-.984 0-1.875.159-2.668.476a5.038 5.038 0 00-2.021 1.47c-.557.662-.984 1.507-1.283 2.532-.301 1.025-.451 2.252-.451 3.679 0 1.428.152 2.66.459 3.697.306 1.037.74 1.889 1.3 2.558a5.14 5.14 0 002.039 1.486c.799.324 1.686.485 2.661.485.918 0 1.755-.093 2.513-.28.76-.187 1.428-.394 2.006-.621l.799 3.451c-.656.328-1.461.602-2.412.824-.953.221-2.113.331-3.485.331-1.699 0-3.232-.286-4.597-.858-1.365-.573-2.53-1.379-3.492-2.422-.963-1.042-1.706-2.297-2.227-3.764-.521-1.468-.781-3.096-.781-4.887M295.696 22.803c.431 0 .836-.042 1.215-.127a8.488 8.488 0 001.037-.298c.312-.113.578-.227.799-.34.22-.113.388-.204.502-.271v-3.145h-2.635c-.602.012-1.094.108-1.479.289-.385.182-.687.397-.91.646-.221.25-.371.505-.449.764-.08.261-.119.477-.119.647 0 .589.195 1.042.586 1.359.39.318.875.476 1.453.476zm3.553-7.07v-.306c0-.555-.073-1.014-.213-1.376a2.07 2.07 0 00-.621-.876c-.272-.22-.614-.376-1.028-.467a6.798 6.798 0 00-1.435-.136c-.444 0-.899.032-1.369.093a14.803 14.803 0 00-2.625.595 8.442 8.442 0 00-1.02.4l-.867-3.484c.408-.216.869-.414 1.385-.595a16.83 16.83 0 013.332-.799 12.699 12.699 0 011.707-.119c1.156 0 2.213.102 3.17.306.957.204 1.779.561 2.464 1.071.686.51 1.221 1.201 1.606 2.073.385.873.578 1.978.578 3.314v10.571h-4.555l-.324-1.75a8.873 8.873 0 01-2.064 1.291c-.448.204-.94.377-1.479.519a6.775 6.775 0 01-1.724.212c-.918 0-1.729-.127-2.43-.382-.703-.255-1.293-.604-1.768-1.045a4.365 4.365 0 01-1.08-1.556 4.984 4.984 0 01-.365-1.912c0-.781.195-1.515.586-2.2a5.82 5.82 0 011.615-1.793c.686-.51 1.498-.912 2.44-1.207.939-.294 1.959-.442 3.058-.442h3.026zM308.254 9.003h4.284l.494 2.329c.668-.975 1.386-1.663 2.158-2.065a5.235 5.235 0 012.463-.604c.226 0 .465.006.715.017.248.011.486.028.713.051l-.289 4.113a6.83 6.83 0 00-.883-.111 17.65 17.65 0 00-1.004-.025c-.69 0-1.328.195-1.91.586-.584.392-1.125.909-1.623 1.556v11.148h-5.118V9.003M328.375 12.164c-.429 0-.82.054-1.171.162a2.396 2.396 0 00-.944.552c-.277.261-.51.606-.697 1.036-.186.432-.33.964-.432 1.598h6.135c0-.612-.08-1.133-.238-1.563-.158-.431-.371-.776-.637-1.037a2.414 2.414 0 00-.918-.569 3.348 3.348 0 00-1.098-.179zm-3.33 6.441c.159 1.303.618 2.3 1.377 2.992.758.69 1.807 1.036 3.145 1.036.963 0 1.828-.071 2.6-.212a20.525 20.525 0 001.97-.45l1.02 3.024c-.713.431-1.569.763-2.567.994a14.24 14.24 0 01-3.246.349c-1.484 0-2.808-.195-3.976-.586-1.166-.392-2.155-.958-2.965-1.7-.811-.741-1.43-1.651-1.861-2.728-.43-1.076-.647-2.305-.647-3.687 0-1.416.207-2.683.621-3.799.414-1.116 1-2.056 1.76-2.821.758-.765 1.674-1.348 2.744-1.75 1.07-.403 2.264-.604 3.578-.604a8.21 8.21 0 012.863.493 7.092 7.092 0 012.329 1.394c.662.6 1.185 1.32 1.572 2.158.385.839.578 1.773.578 2.804v3.093h-10.895z"/><path d="M27.233.777c1.046-.399 3.755-.399 4.801 0h-4.801" fill="#C2C6B9"/><path d="M23.634 20.217c-5.299-3.655-2.02-12.334 4.32-11.76 2.305.209 3.748 1.649 5.04 3.359 2.998 6.155-3.952 12.107-9.36 8.401" fill="#1D5D94"/><path d="M30.114 23.098c9.95-.69 15.682-5.599 22.56-9.361v.24c-6.31 5.05-14.438 12.572-24.96 13.68-11.768 1.239-17.953-4.86-23.04-11.52.046-.194.24-.239.24-.48 3.659.22 6.18-.7 9.84-.479 2.739 4.06 6.066 7.533 12.479 7.92.414.397 2.467.397 2.881 0" fill="#91C251"/><path d="M27.233 23.098h2.881c-.414.397-2.467.397-2.881 0M22.914 28.857h3.359c-.57.399-2.789.399-3.359 0" fill="#C2C6B9"/><g transform="translate(0 .23)"><mask id="b" fill="#fff"><use xlink:href="#a"/></mask><path d="M7.073 8.709c.389.569-1.155 1.537-1.679 1.919-1.541 1.126-.938.538.48-.72.31-.275.974-.65 1.199-1.2M33.233.548c1.437-.13 2.832.903 4.08 1.44 1.732.745 3.287 1.76 4.321 1.44.531.528-.421.798-.481 1.44-.81-.71-2.081-.958-2.88-1.68-11.396-5.877-26.105 2.46-33.12 8.64-.336-.084-.02-.422.241-.48 1.748-2.013 5.166-3.632 6.48-5.28 3.348-1.933 6.837-3.723 11.04-4.8 2.44-.281 7.071-.447 10.319-.72" fill="#C2C6B9" mask="url(#b)"/><path d="M49.313 13.508c.127.193.251.39.241.72-3.048.552-6.842.357-9.84.96-7.511-15.42-31.291-5.26-39.6 2.64-.517-.378.885-.86.959-1.44C7.259 12.365 15.06 6.087 25.554 6.068c6.407-.012 11.409 3.076 13.679 8.4 3.018-.664 6.852-.508 10.08-.96" fill="#C2C6B9" mask="url(#b)"/><path d="M11.874 6.068c-.975.785-2.346 1.176-3.12 2.16.397-1.254 2.047-1.833 3.36-2.641 6.248-3.84 16.501-7.63 26.159-4.32 1.238.426 3.272.633 3.361 2.16-1.034.32-2.589-.694-4.321-1.44-1.248-.536-2.643-1.57-4.08-1.44h-1.199c-1.046-.398-3.755-.398-4.801 0-1.789-.108-2.973.388-4.319.72-4.203 1.078-7.692 2.868-11.04 4.8" fill="#91C251" mask="url(#b)"/><path d="M22.914 1.268c1.346-.333 2.53-.83 4.319-.72h6c-3.248.273-7.879.439-10.319.72" fill="#FFFFFE" mask="url(#b)"/><path d="M1.073 16.388c1.049-1.93 3.229-3.448 5.281-5.04 7.288-5.653 19.539-12.994 31.919-8.16.799.722 2.07.97 2.88 1.68 3.284 2.158 6.784 5.376 8.16 8.64-3.228.452-7.062.296-10.08.96-2.27-5.324-7.272-8.412-13.679-8.4-10.494.019-18.295 6.297-24.481 10.32" fill="#91C251" mask="url(#b)"/></g><path d="M23.634 20.217c5.408 3.706 12.358-2.246 9.36-8.401 5.076 5.619-4.09 13.873-9.36 8.401" fill="#C2C6B9"/><g fill="#C2C6B9"><path d="M4.674 16.137c5.087 6.66 11.272 12.759 23.04 11.52 10.522-1.108 18.65-8.63 24.96-13.68.279.041.261.379.24.72-7.132 5.688-15.692 13.276-26.88 13.92-2.163.125-6.695-1.103-7.681-.721-.026.012.022.217 0 .241-1.927-.631-3.35-1.769-5.28-2.4-2.885-2.981-7.125-5.799-8.399-9.6"/><path d="M42.114 23.816c1.928-.392 4.356-2.362 6-3.839-6.046 7.205-23.441 14.232-35.52 7.44.567-.866-.645-.651 0-1.44h.24c1.859 2.868 8.051 3.463 13.68 3.36-.885.556-2.796.084-4.08.24 3.081.759 6.378-.341 9.12-.72.369-.127.015-.251-.241-.24 3.841-1.359 7.678-2.722 10.801-4.801"/></g><path d="M26.273 28.857c8.326-.795 14.123-4.118 19.441-7.919-.099 1.104-2.512 1.964-3.6 2.878-3.123 2.079-6.96 3.442-10.801 4.801-1.652.188-3.183.496-4.799.72-5.629.103-11.821-.492-13.68-3.36-.044-.204.094-.227.239-.24 1.93.631 3.353 1.769 5.28 2.4 1.386.375 2.829.691 4.561.72.57.399 2.789.399 3.359 0" fill="#91C251"/><path d="M26.514 29.337c1.616-.224 3.147-.532 4.799-.72.256-.011.61.113.241.24-2.742.379-6.039 1.479-9.12.72 1.284-.156 3.195.316 4.08-.24" fill="#FFFFFE"/></g></svg>