<?xml version="1.0" standalone="no"?>
<!DOCTYPE svg PUBLIC "-//W3C//DTD SVG 20010904//EN"
 "http://www.w3.org/TR/2001/REC-SVG-20010904/DTD/svg10.dtd">
<svg version="1.0" xmlns="http://www.w3.org/2000/svg"
 width="56.000000pt" height="45.000000pt" viewBox="0 0 56.000000 45.000000"
 preserveAspectRatio="xMidYMid meet">
<metadata>
Created by potrace 1.15, written by Peter Selinger 2001-2017
</metadata>
<g transform="translate(0.000000,45.000000) scale(0.100000,-0.100000)"
fill="#000000" stroke="none">
<path d="M0 346 c0 -113 2 -116 61 -116 16 0 29 -5 29 -10 0 -18 -37 -85 -65
-119 l-27 -31 33 -27 c55 -47 55 -47 98 7 60 76 81 143 88 282 l6 118 -111 0
-112 0 0 -104z"/>
<path d="M340 360 c0 -47 -3 -95 -6 -107 -6 -22 -3 -23 46 -23 49 0 51 -1 44
-22 -10 -33 -40 -88 -66 -121 l-22 -27 34 -30 c19 -16 40 -29 46 -30 19 0 75
70 102 128 20 45 26 78 32 181 4 69 6 127 6 128 -1 0 -49 3 -109 5 l-107 3 0
-85z"/>
</g>
</svg>
